<?xml version="1.0" encoding="UTF-8"?>
<svg fill="none" viewBox="0 0 145 36" xmlns="http://www.w3.org/2000/svg">
<path d="m13.232 24.334c-1.5205 0.8782-2.6127 0.1464-2.6127-1.1555v-5.544-5.544c0-1.3018 1.0915-2.0337 2.6127-1.1554 2.3681 1.3675 9.4718 5.4715 9.4718 5.4715 0.9445 0.5455 0.9445 1.9097 0 2.4552 0 7e-4 -7.1037 4.1046-9.4718 5.4722z" fill="#00C1FF"/>
<path d="m21.052 24.334c-1.5205 0.8783-2.6128 0.1464-2.6128-1.1554v-5.5441-5.544c0-1.3018 1.0916-2.0337 2.6128-1.1554 2.3159 1.3377 9.2637 5.3516 9.2637 5.3516 1.0374 0.599 1.0374 2.0967 0 2.6957-6e-4 0-6.9478 4.0139-9.2637 5.3516z" fill="#FCDE00"/>
<mask id="a" x="18" y="10" width="14" height="15" mask-type="alpha" maskUnits="userSpaceOnUse">
<path d="m21.052 24.334c-1.5205 0.8783-2.6128 0.1464-2.6128-1.1554v-5.5441-5.544c0-1.3018 1.0916-2.0337 2.6128-1.1554 2.3159 1.3377 9.2637 5.3516 9.2637 5.3516 1.0374 0.599 1.0374 2.0967 0 2.6957-6e-4 0-6.9478 4.0139-9.2637 5.3516z" fill="#FCDE00"/>
</mask>
<g mask="url(#a)">
<g filter="url(#b)">
<path d="m13.232 24.334c-1.5205 0.8782-2.6127 0.1464-2.6127-1.1555v-5.544-5.544c0-1.3018 1.0915-2.0337 2.6127-1.1554 2.3681 1.3675 9.4718 5.4715 9.4718 5.4715 0.9445 0.5455 0.9445 1.9097 0 2.4552 0 7e-4 -7.1037 4.1046-9.4718 5.4722z" fill="#FF8A00"/>
</g>
</g>
<path d="m36.139 20.106 0.2696-0.6104c0.1796-0.4133 0.5028-0.5211 0.9161-0.2155 0.79 0.5746 2.0827 1.0055 3.8071 1.0055 1.4723 0 2.1011-0.3774 2.1011-0.8259 0-0.5028-0.5211-0.6464-1.3829-0.7542l-1.9574-0.2513c-2.3525-0.3056-3.5382-1.1491-3.5382-2.6221 0-1.5801 1.2928-2.8376 4.2923-2.8376 1.6701 0 2.7474 0.2514 3.448 0.5211 0.7717 0.3055 0.8801 0.5569 0.8801 1.185v0.8083c0 0.5027-0.1795 0.6823-0.6823 0.6823h-0.5569c-0.5027 0-0.6823-0.1796-0.6823-0.6823v-0.2697c-0.3232-0.1077-1.1315-0.2696-2.0828-0.2696-1.6525 0-2.4601 0.3055-2.4601 0.8083 0 0.3767 0.4851 0.5928 1.3646 0.7182l1.9215 0.2513c2.3524 0.3056 3.5916 1.0055 3.5916 2.694 0 1.7236-1.6342 2.8192-4.5436 2.8192-2.137 0-3.8613-0.6823-4.5436-1.311-0.2514-0.2331-0.2873-0.538-0.1619-0.8436z" fill="#000"/>
<path d="m57.33 22.118h-0.9879c-0.4851 0-0.6464-0.0719-0.8801-0.431l-1.868-2.7474c-0.2697-0.3774-0.4668-0.4668-1.0231-0.4668h-1.868v2.9629c0 0.5027-0.1795 0.6823-0.6823 0.6823h-0.7182c-0.5027 0-0.6823-0.1796-0.6823-0.6823v-8.9253h-0.6646c-0.5028 0-0.6823-0.1796-0.6823-0.6823v-0.5929c0-0.5027 0.1795-0.6823 0.6823-0.6823h2.0651c0.5028 0 0.6823 0.1796 0.6823 0.6823v5.2259h1.6701c0.5563 0 0.7542-0.0894 1.0231-0.4668l1.5625-2.4066c0.2513-0.3767 0.4133-0.4486 0.8977-0.4486h0.9879c0.5386 0 0.6463 0.431 0.3414 0.8802l-1.7419 2.6397c-0.1796 0.2514-0.395 0.521-0.6105 0.7365 0.2155 0.1795 0.521 0.4851 0.6464 0.6646l2.1905 3.1967c0.3062 0.4302 0.1985 0.8612-0.3401 0.8612z" fill="#000"/>
<path d="m60.724 23.77v-0.5928c0-0.5028 0.1795-0.6823 0.6823-0.6823h0.8618c0.521 0 0.7724-0.1078 0.9696-0.5211l0.1077-0.2337-4.1127-7.7762c-0.2514-0.4668-0.0535-0.8259 0.4851-0.8259h0.9337c0.4851 0 0.7006 0.0894 0.8801 0.4309l1.7237 3.5375c0.395 0.8083 0.8442 1.7419 1.2033 2.5502 0.3591-0.79 0.7717-1.6877 1.1674-2.4784l1.7603-3.6079c0.1619-0.3415 0.395-0.431 0.8801-0.431h0.9337c0.5386 0 0.7365 0.3591 0.4851 0.826l-4.6866 8.8893c-0.5386 1.0238-1.1674 1.5984-2.5679 1.5984h-1.0244c-0.5028-7e-4 -0.6823-0.1802-0.6823-0.683z" fill="#000"/>
<path d="m71.238 20.106 0.2697-0.6104c0.1795-0.4133 0.5027-0.5211 0.916-0.2155 0.79 0.5746 2.0828 1.0055 3.8072 1.0055 1.4723 0 2.101-0.3774 2.101-0.8259 0-0.5028-0.521-0.6464-1.3828-0.7542l-1.9575-0.2513c-2.3524-0.3056-3.5381-1.1491-3.5381-2.6221 0-1.5801 1.2927-2.8376 4.2922-2.8376 1.6702 0 2.7475 0.2514 3.4481 0.5211 0.7717 0.3055 0.8801 0.5569 0.8801 1.185v0.8083c0 0.5027-0.1796 0.6823-0.6823 0.6823h-0.5569c-0.5028 0-0.6823-0.1796-0.6823-0.6823v-0.2697c-0.3232-0.1077-1.1315-0.2696-2.0828-0.2696-1.6525 0-2.4602 0.3055-2.4602 0.8083 0 0.3767 0.4852 0.5928 1.3646 0.7182l1.9215 0.2513c2.3525 0.3056 3.5917 1.0055 3.5917 2.694 0 1.7236-1.6342 2.8192-4.5436 2.8192-2.137 0-3.8614-0.6823-4.5436-1.311-0.2514-0.2331-0.2873-0.538-0.162-0.8436z" fill="#000"/>
<path d="m99.875 17.126v4.3099c0 0.5027-0.1795 0.6823-0.6823 0.6823h-0.7182c-0.5027 0-0.6823-0.1796-0.6823-0.6823v-4.1303c0-1.4005-0.6822-2.2447-2.0834-2.2447-1.1315 0-2.0293 0.7005-2.6939 1.4363v4.9387c0 0.5027-0.1796 0.6823-0.6823 0.6823h-0.7182c-0.5028 0-0.6823-0.1796-0.6823-0.6823v-4.1303c0-1.4005-0.6647-2.2447-2.0652-2.2447-1.0955-0.0183-2.0475 0.6463-2.7115 1.3645v5.0105c0 0.5027-0.1795 0.6823-0.6823 0.6823h-0.7182c-0.5027 0-0.6823-0.1796-0.6823-0.6823v-6.3391h-0.6646c-0.5028 0-0.6823-0.1796-0.6823-0.6823v-0.5929c0-0.5027 0.1795-0.6823 0.6823-0.6823h1.7419c0.5028 0 0.6823 0.1796 0.6823 0.6823v0.4851c0.6105-0.6287 1.5984-1.311 3.0889-1.311 1.6519 0 2.7292 0.5386 3.3762 1.5441 0.7901-0.8083 1.8674-1.5441 3.4481-1.5441 2.5489-7e-4 4.1296 1.4005 4.1296 4.1303z" fill="#000"/>
<path d="m107.6 16.497h2.12v-0.3055c0-0.79-0.952-1.2569-2.46-1.2569-1.365 0-2.461 0.5028-3.107 0.9879-0.413 0.3056-0.736 0.2154-0.916-0.2155l-0.27-0.6104c-0.125-0.3056-0.09-0.6105 0.162-0.8443 0.521-0.4851 2.047-1.2568 4.238-1.2568 2.479 0 4.364 1.0414 4.364 2.9094v5.5308c0 0.5027-0.18 0.6823-0.683 0.6823h-0.574c-0.503 0-0.682-0.1796-0.682-0.6823v-0.5028c-0.593 0.7006-1.814 1.3287-3.52 1.3287-1.994 0-3.717-0.9337-3.717-2.7657-1e-3 -1.9751 1.813-2.9989 5.045-2.9989zm-1.113 3.879c1.132 0 3.305-0.6105 3.305-2.2271h-1.958c-2.227 0-3.142 0.4668-3.142 1.2392-1e-3 0.6288 0.592 0.9879 1.795 0.9879z" fill="#000"/>
<path d="m124.15 16.928c0 0.5027-0.18 0.6823-0.682 0.6823h-0.719c-0.502 0-0.682-0.1437-0.682-0.6823 0-1.3287-0.503-1.9216-1.724-1.9216-1.149 0-2.101 0.7182-2.639 1.5808v4.8485c0 0.5027-0.18 0.6823-0.683 0.6823h-0.718c-0.502 0-0.682-0.1796-0.682-0.6823v-6.3391h-0.665c-0.502 0-0.682-0.1796-0.682-0.6823v-0.5929c0-0.5027 0.18-0.6823 0.682-0.6823h1.742c0.503 0 0.683 0.1796 0.683 0.6823v0.5746c0.646-0.7182 1.616-1.4005 3.286-1.4005 2.477-7e-4 3.483 1.454 3.483 3.9325z" fill="#000"/>
<path d="m126.2 13.139h1.203v-2.3524c0-0.5027 0.18-0.6823 0.683-0.6823h0.718c0.503 0 0.682 0.1796 0.682 0.6823v2.3524h4.472c0.503 0 0.682 0.1796 0.682 0.6823v0.5929c0 0.5027-0.179 0.6823-0.682 0.6823h-4.472v3.9507c0 0.7724 0.521 1.1851 1.76 1.1851 1.006 0 1.616-0.3415 1.975-0.6105 0.414-0.3056 0.701-0.1979 0.916 0.2154l0.342 0.6823c0.144 0.3056 0.072 0.5387-0.198 0.7724-0.323 0.2873-1.364 0.9696-3.268 0.9696-2.066 0-3.61-0.8801-3.61-2.9453v-4.2204h-1.204c-0.502 0-0.682-0.1796-0.682-0.6823v-0.5929c1e-3 -0.5027 0.18-0.6816 0.683-0.6816z" fill="#000"/>
<defs>
<filter id="b" x="9.5345" y="9.4675" width="14.961" height="16.335" color-interpolation-filters="sRGB" filterUnits="userSpaceOnUse">
<feFlood flood-opacity="0" result="BackgroundImageFix"/>
<feBlend in="SourceGraphic" in2="BackgroundImageFix" result="shape"/>
<feGaussianBlur result="effect1_foregroundBlur" stdDeviation="0.542117"/>
</filter>
</defs>
</svg>
